<svg width="140" height="140" viewBox="0 0 140 140" fill="none" xmlns="http://www.w3.org/2000/svg">
<path d="M139.125 106.887C138.961 108.008 138.688 109.102 138.277 109.949C137.539 111.453 136.828 111.59 134.039 111.453C130.43 111.289 125.262 111.453 119.793 111.672C119.793 113.176 119.848 113.887 119.848 113.887C120.203 118.016 122.062 118.152 122.801 118.152H134.559C135.598 118.152 136.555 118.152 137.293 117.66C138.25 117.031 138.66 115.199 139.016 112C139.07 111.535 139.098 110.934 139.125 110.223V110.195C139.125 109.977 139.152 109.703 139.152 109.402V109.102C139.152 108.363 139.152 107.543 139.125 106.887Z" fill="black"/>
<path d="M0.820312 106.887C0.984375 108.008 1.25781 109.102 1.66797 109.949C2.40625 111.453 3.11719 111.59 5.90625 111.453C9.51562 111.289 14.6836 111.453 20.1523 111.672C20.1523 113.176 20.0977 113.887 20.0977 113.887C19.7422 118.016 17.8828 118.152 17.1445 118.152H5.38672C4.34766 118.152 3.47266 118.152 2.65234 117.66C1.66797 117.086 1.28516 115.199 0.929688 112C0.875 111.535 0.847656 110.934 0.820312 110.223V110.195C0.820312 109.977 0.792969 109.703 0.792969 109.402V109.102C0.820312 108.363 0.820312 107.543 0.820312 106.887Z" fill="black"/>
<path d="M140 81.1016C140 72.707 138.906 64.5039 138.469 63.6016C138.141 62.9453 136.035 61.2227 131.25 57.9688C126.41 54.6602 126.52 55.1523 125.645 52.9922C126.438 52.7461 127.203 52.2812 127.668 52.2266C128.707 52.1172 128.762 53.1016 130.922 53.1016C133.082 53.1016 137.758 52.5273 138.715 51.5703C139.672 50.6133 139.973 50.2852 139.973 49.4375C139.973 48.5898 139.48 46.8398 138.551 45.8008C137.621 44.7617 133.656 44.2422 131.332 43.9414C129.008 43.6406 128.68 43.9414 128.078 44.3242C127.121 44.9258 127.066 50.4219 127.066 50.4219L124.797 50.4766C123.32 46.8398 121.27 39.5117 118.07 33.7422C114.57 27.4531 110.906 25.4844 109.375 24.9922C107.871 24.5273 106.504 24.1992 96.25 23.1602C85.7773 22.0664 77.4375 21.9297 70 21.9297C62.5625 21.9297 54.2227 22.0937 43.75 23.1602C33.4961 24.2266 32.1289 24.5273 30.625 24.9922C29.1211 25.457 25.4297 27.4531 21.9297 33.7422C18.7305 39.5117 16.6797 46.8398 15.2031 50.4766L12.9336 50.4219C12.9336 50.4219 12.9062 44.9258 11.9219 44.3242C11.3203 43.9414 10.9922 43.6133 8.66797 43.9414C6.34375 44.2695 2.37891 44.7617 1.44922 45.8008C0.519531 46.8398 0.0273438 48.5898 0.0273438 49.4375C0.0273438 50.2852 0.328125 50.6406 1.28516 51.5703C2.24219 52.5273 6.91797 53.1016 9.07812 53.1016C11.2383 53.1016 11.293 52.1172 12.332 52.2266C12.7969 52.2812 13.5898 52.7461 14.3555 52.9922C13.4531 55.1523 13.5898 54.6602 8.75 57.9688C3.96484 61.25 1.83203 62.9453 1.53125 63.6016C1.09375 64.5039 0 72.707 0 81.1016C0 89.4961 0.601562 97.043 0.601562 99.7227C0.601562 100.844 0.601562 102.812 0.847656 104.699C1.01172 105.82 1.25781 106.914 1.69531 107.762C2.43359 109.266 3.11719 109.402 5.93359 109.266C9.54297 109.102 14.7656 109.266 20.1523 109.484C23.7617 109.621 27.4531 109.758 30.7344 109.84C38.9375 110.004 36.5312 108.637 40.0312 108.691C43.5312 108.746 57.3398 109.32 69.9727 109.32C82.6055 109.32 96.4414 108.746 99.9141 108.691C103.414 108.637 101.008 110.004 109.211 109.84C112.492 109.785 116.184 109.621 119.793 109.484C125.18 109.293 130.43 109.102 134.012 109.266C136.828 109.402 137.512 109.266 138.25 107.762C138.66 106.914 138.934 105.82 139.098 104.699C139.371 102.812 139.344 100.844 139.344 99.7227C139.398 97.0703 140 89.4961 140 81.1016ZM23.5703 39.7031C24.8828 36.6406 28.8203 30.4883 30.7344 29.3945C31.1992 29.1211 35.2734 27.8359 45.4727 27.1523C54.8516 26.5234 65.2148 26.2773 70.0273 26.2773C74.8398 26.2773 85.2031 26.5234 94.582 27.1523C104.754 27.8359 108.883 29.0938 109.32 29.3945C111.781 31.0898 115.172 36.6406 116.484 39.7031C117.797 42.7656 119.547 48.7812 119.219 49.6016C118.891 50.4219 119.547 50.832 115.117 50.4766C110.715 50.1484 83.0703 49.793 70.0547 49.793C57.0664 49.793 29.4219 50.1484 24.9922 50.4766C20.5625 50.8047 21.2188 50.4219 20.8906 49.6016C20.5078 48.7812 22.2578 42.793 23.5703 39.7031ZM33.6328 73.9375C31.6641 74.4297 30.4883 75.4961 28.0273 75.4688C25.5664 75.4688 18.9219 74.3477 17.5 74.293C16.0781 74.2383 14.8203 75.25 14.082 75.4414C13.3438 75.6328 11.8945 75.1133 9.70703 74.4297C7.51953 73.7461 6.23438 73.9375 5.52344 70.957C4.78516 68.0039 5.52344 63.7656 5.52344 63.7656C10.2539 63.5469 14.8203 63.9844 23.3789 66.3906C31.9375 68.7969 36.6953 73.418 36.6953 73.418C36.6953 73.418 35.6016 73.4453 33.6328 73.9375ZM97.9453 95.4844C94.0352 96.0039 77.6562 96.1406 70 96.1406C62.3438 96.1406 45.9648 95.9766 42.0547 95.4844C38.0625 94.9648 32.8672 90.1797 36.4492 86.3789C41.2891 81.2109 40.3867 81.375 51.3789 79.9531C60.8945 78.7227 68.1133 78.668 70 78.668C71.8594 78.668 79.1055 78.75 88.6211 79.9531C99.6133 81.375 98.7109 81.2109 103.551 86.3789C107.133 90.1797 101.938 94.9648 97.9453 95.4844ZM134.477 70.9844C133.738 73.9375 132.48 73.7734 130.293 74.457C128.105 75.1406 126.656 75.6328 125.918 75.4688C125.18 75.3047 123.922 74.293 122.5 74.3203C121.078 74.375 114.434 75.4961 111.973 75.4961C109.512 75.4961 108.336 74.457 106.367 73.9648C104.398 73.4727 103.305 73.4727 103.305 73.4727C103.305 73.4727 108.035 68.8242 116.621 66.4453C125.18 64.0391 129.746 63.6016 134.477 63.8203C134.477 63.7656 135.215 68.0039 134.477 70.9844Z" fill="black"/>
</svg>
