<svg width="94" height="94" viewBox="0 0 94 94" fill="none" xmlns="http://www.w3.org/2000/svg">
<g clip-path="url(#clip0_1_137)">
<path d="M88.2535 37.5633H83.7555C82.5437 37.5633 81.1301 36.4617 80.6527 35.1582C80.2305 33.9465 79.7164 32.7531 79.1473 31.5781C78.5414 30.348 78.7617 28.5672 79.6246 27.7043L82.8375 24.4914C85.0773 22.2516 85.0773 18.598 82.8375 16.3582L77.6418 11.1625C76.5586 10.0793 75.1082 9.47344 73.566 9.47344C72.0238 9.47344 70.5734 10.0609 69.4902 11.1625L66.2957 14.3754C65.7816 14.8895 64.9187 15.2016 64.0008 15.2016C63.4316 15.2016 62.8809 15.0914 62.4219 14.8527C61.2652 14.2836 60.0535 13.7879 58.8418 13.3473C57.5383 12.8883 56.4367 11.4562 56.4367 10.2445V5.74648C56.4367 2.58867 53.848 0 50.6719 0H43.3281C40.152 0 37.5816 2.58867 37.5816 5.74648V10.2445C37.5816 11.4562 36.4801 12.8883 35.1766 13.3473C33.9648 13.7695 32.7531 14.2836 31.5965 14.8344C31.1375 15.0547 30.5867 15.1832 30.0176 15.1832C29.0996 15.1832 28.2367 14.8711 27.7227 14.357L24.5281 11.1625C23.4449 10.0793 21.9945 9.47344 20.4523 9.47344C18.9102 9.47344 17.4598 10.0793 16.3766 11.1625L11.1625 16.3766C10.0793 17.4598 9.47344 18.9102 9.47344 20.4523C9.47344 21.9945 10.0793 23.4266 11.1625 24.5098L14.3754 27.7227C15.2383 28.5855 15.4586 30.3664 14.8711 31.5965C14.302 32.7715 13.8062 33.9648 13.3656 35.1766C12.9066 36.4801 11.4746 37.5816 10.2629 37.5816H5.76484C2.58867 37.5633 0 40.1519 0 43.3281V50.6719C0 53.848 2.58867 56.4184 5.74648 56.4184H10.2445C11.4563 56.4184 12.8883 57.5199 13.3473 58.8234C13.7695 60.0351 14.2836 61.2285 14.8527 62.4035C15.4586 63.6336 15.2199 65.4144 14.357 66.2773L11.1441 69.4902C8.9043 71.7301 8.9043 75.3836 11.1441 77.6234L16.3582 82.8375C17.4414 83.9207 18.8918 84.5265 20.434 84.5265C21.9762 84.5265 23.4082 83.9207 24.5098 82.8375L27.7227 79.6246C28.2367 79.1105 29.0996 78.7984 30.0176 78.7984C30.5867 78.7984 31.1375 78.9086 31.5965 79.1472C32.7531 79.7164 33.9648 80.2121 35.1766 80.6344C36.4801 81.0933 37.5816 82.5254 37.5816 83.7371V88.2351C37.5816 91.4113 40.1703 93.9816 43.3281 93.9816H50.6719C53.848 93.9816 56.4367 91.393 56.4367 88.2351V83.7371C56.4367 82.5254 57.5383 81.0933 58.8418 80.6344C60.0535 80.2121 61.2652 79.698 62.4219 79.1472C62.8625 78.9269 63.4316 78.7984 64.0008 78.7984C64.9187 78.7984 65.7816 79.1105 66.2957 79.6246L69.4902 82.8375C70.5734 83.9207 72.0238 84.5265 73.566 84.5265C75.1082 84.5265 76.5402 83.9207 77.6418 82.8375L82.8375 77.6234C85.0773 75.3836 85.0773 71.7301 82.8375 69.4902L79.643 66.2957C78.7801 65.4328 78.5598 63.6519 79.1656 62.4219C79.7348 61.2652 80.2305 60.0535 80.6527 58.8418C81.1117 57.5383 82.5437 56.4367 83.7555 56.4367H88.2535C91.4297 56.4367 94 53.848 94 50.6902V43.3281C94 40.1519 91.4113 37.5633 88.2535 37.5633ZM47 63.8723C37.6918 63.8723 30.1277 56.3082 30.1277 47C30.1277 37.7101 37.6918 30.1277 47 30.1277C56.3082 30.1277 63.8723 37.6918 63.8723 47C63.8723 56.2898 56.3082 63.8723 47 63.8723Z" fill="black"/>
</g>
<defs>
<clipPath id="clip0_1_137">
<rect width="94" height="94" fill="white"/>
</clipPath>
</defs>
</svg>
