<svg width="140" height="140" viewBox="0 0 140 140" fill="none" xmlns="http://www.w3.org/2000/svg">
<path d="M117.305 86.9531H104.727V91.6016H117.305V86.9531Z" fill="white"/>
<path d="M86.6797 86.9531H74.1016V91.6016H86.6797V86.9531Z" fill="white"/>
<path d="M112.93 62.7357C112.915 63.1154 112.792 63.4828 112.574 63.7942C112.356 64.1057 112.054 64.3481 111.702 64.4926C111.347 64.6411 110.958 64.6859 110.578 64.6217C110.199 64.5575 109.845 64.387 109.559 64.13L91.3284 47.0276V62.4896C91.3337 62.8523 91.2344 63.2088 91.0422 63.5164C90.85 63.824 90.5731 64.0696 90.2449 64.2238C89.9166 64.3781 89.5508 64.4343 89.1913 64.3858C88.8319 64.3374 88.494 64.1863 88.2183 63.9506L67.8128 46.7271V62.7357C67.8236 62.9746 67.7845 63.2131 67.698 63.4359C67.6114 63.6588 67.4794 63.8612 67.3102 64.0302C67.1411 64.1992 66.9385 64.331 66.7155 64.4173C66.4926 64.5036 66.254 64.5425 66.0152 64.5314H40.2705C40.6599 66.1055 41.22 67.6324 41.9409 69.0849C43.8572 72.9721 44.8507 77.2491 44.844 81.5829V83.1251H57.8957C58.9531 83.1251 59.8831 83.8579 59.8831 84.9151V93.5942C59.8831 94.6513 58.9534 95.4298 57.8957 95.4298H44.844V112.383H130.43V63.5629L112.93 47.0276V62.7357ZM90.5081 93.7892C90.5081 94.2968 90.3064 94.7837 89.9475 95.1426C89.5885 95.5016 89.1017 95.7033 88.594 95.7033H72.1878C71.6801 95.7033 71.1933 95.5016 70.8343 95.1426C70.4754 94.7837 70.2737 94.2968 70.2737 93.7892V85.0392C70.2737 84.5316 70.4754 84.0447 70.8343 83.6858C71.1933 83.3268 71.6801 83.1251 72.1878 83.1251H88.594C89.1017 83.1251 89.5885 83.3268 89.9475 83.6858C90.3064 84.0447 90.5081 84.5316 90.5081 85.0392V93.7892ZM121.133 85.0392V93.7892C121.133 94.2968 120.931 94.7837 120.572 95.1426C120.214 95.5016 119.727 95.7033 119.219 95.7033H102.813C102.305 95.7033 101.818 95.5016 101.459 95.1426C101.1 94.7837 100.899 94.2968 100.899 93.7892V85.0392C100.899 84.5316 101.1 84.0447 101.459 83.6858C101.818 83.3268 102.305 83.1251 102.813 83.1251H119.219C119.727 83.1251 120.214 83.3268 120.572 83.6858C120.931 84.0447 121.133 84.5316 121.133 85.0392Z" fill="white"/>
<path d="M56.0547 86.9531H44.8438V91.6016H56.0547V86.9531Z" fill="white"/>
<path d="M35.5469 58.4172V38.8281H15.0391V58.4172C15.0338 62.7345 14.0287 66.992 12.1026 70.8559C10.4414 74.188 9.57468 77.8596 9.57031 81.5828V112.383H41.0156V81.5828C41.0112 77.8597 40.1445 74.1882 38.4833 70.8561C36.5571 66.9922 35.552 62.7346 35.5469 58.4172Z" fill="white"/>
<path d="M35.5469 27.8906H15.0391V35H35.5469V27.8906Z" fill="white"/>
</svg>
