<svg width="94" height="94" viewBox="0 0 94 94" fill="none" xmlns="http://www.w3.org/2000/svg">
<path d="M60.4044 88.358V60.2952C60.4044 58.1452 59.5504 56.0831 58.0301 54.5627C56.5099 53.0423 54.4479 52.188 52.2979 52.1877C50.1476 52.1877 48.0854 53.0419 46.565 54.5624C45.0445 56.0828 44.1904 58.145 44.1904 60.2952V88.358H5.29785V93.998H87.0779V88.358H60.4044Z" fill="white"/>
<path d="M36.0021 27.9397L34.1221 71.4946L39.7574 71.7362L40.9361 44.416C48.284 41.8535 56.2752 41.8058 63.6531 44.2807L64.8375 71.7362L70.4728 71.4946L68.5928 27.9397L62.9584 28.1832L63.3956 38.3098C56.1283 36.2879 48.4419 36.3269 41.1956 38.4226L41.6374 28.1832L36.0021 27.9397Z" fill="white"/>
<path d="M63.924 0.00195312L60.3802 9.54295C58.1854 7.50091 55.2988 6.36572 52.3009 6.36572C49.3031 6.36572 46.4164 7.50091 44.2216 9.54295L40.6684 0.00195312L15.8994 3.09455L16.595 8.68755L36.9366 6.14955L40.5838 15.9632L40.6214 15.9538C40.4697 16.7152 40.3941 17.4898 40.3958 18.2661C40.3958 21.4236 41.6501 24.4517 43.8827 26.6843C46.1154 28.917 49.1435 30.1713 52.3009 30.1713C55.4583 30.1713 58.4864 28.917 60.7191 26.6843C62.9517 24.4517 64.206 21.4236 64.206 18.2661C64.2046 17.4895 64.1259 16.7148 63.971 15.9538L64.0086 15.9632L67.6558 6.14955L87.9974 8.68755L88.7024 3.09455L63.924 0.00195312ZM52.2962 25.6076C50.8456 25.6066 49.4277 25.1757 48.2219 24.3691C47.0161 23.5626 46.0765 22.4167 45.5218 21.0763C44.9671 19.7359 44.8222 18.2611 45.1054 16.8384C45.3887 15.4156 46.0873 14.1088 47.1131 13.083C48.1389 12.0573 49.4457 11.3586 50.8684 11.0754C52.2912 10.7921 53.766 10.937 55.1064 11.4917C56.4468 12.0464 57.5927 12.9861 58.3992 14.1919C59.2057 15.3977 59.6367 16.8155 59.6376 18.2661C59.6381 19.2304 59.4486 20.1852 59.0798 21.0762C58.711 21.9671 58.1703 22.7766 57.4885 23.4584C56.8067 24.1402 55.9972 24.681 55.1062 25.0497C54.2153 25.4185 53.2604 25.608 52.2962 25.6076ZM19.9076 35.2679H29.5426V40.9079H19.9076V35.2679ZM75.0536 35.2679H84.6886V40.9079H75.0536V35.2679Z" fill="white"/>
</svg>
