<svg width="140" height="140" viewBox="0 0 140 140" fill="none" xmlns="http://www.w3.org/2000/svg">
<g clip-path="url(#clip0_1_121)">
<path d="M72.4938 17.5875C72.8291 17.5875 73.1646 17.602 73.4853 17.6605V15.9545C73.4853 13.344 71.3561 11.2295 68.7603 11.2295H32.2436C29.633 11.2295 27.5186 13.344 27.5186 15.9545V17.8068C28.1311 17.661 28.7873 17.588 29.4436 17.588H72.4938V17.5875ZM107.64 47.1039C107.64 44.2957 105.691 41.9466 103.072 41.2931V31.5429C103.072 29.9657 103.928 28.5075 105.304 27.7364C106.007 27.3426 106.258 26.4539 105.863 25.7509C105.472 25.0496 104.583 24.7983 103.879 25.1912C101.582 26.478 100.155 28.9111 100.155 31.5429V41.2953C97.5399 41.9516 95.5941 44.2985 95.5941 47.1042V56.4377H107.64V47.1039H107.64Z" fill="black"/>
<path d="M121.523 88.1709C123.838 88.1709 126.366 88.5518 128.668 89.367V85.1054C121.976 83.6267 116.951 77.6556 116.951 70.5244V60.0837H84.3497L77.0287 24.9229C76.5764 22.7937 74.681 21.2334 72.4932 21.2334C68.0807 21.2337 88.4568 21.2321 29.441 21.2373C26.7031 21.2373 24.3843 23.2894 24.0477 26.0131L19.8029 60.8879L3.79148 77.6709C1.34148 80.2522 0 83.6062 0 87.1502C0 89.9106 0.81457 92.6504 2.49375 95.0249C4.75563 79.3392 18.34 67.1124 34.7957 67.1124C52.9115 67.1124 67.448 81.8781 67.448 99.7647C67.448 100.144 67.448 100.523 67.4187 100.902H101.486C105.081 93.273 112.784 88.1709 121.523 88.1709ZM26.9432 26.3675C27.0993 25.1056 28.1728 24.1538 29.441 24.1538H48.7077V60.0823H22.8386L26.9432 26.3675ZM81.6955 74.6374C81.6955 75.9792 80.6017 77.0727 79.2455 77.0727H68.9497C68.308 77.0727 67.6955 76.8249 67.2287 76.3727C65.6335 74.7938 73.0073 82.0919 51.628 60.9322V24.1499H72.4935C73.2955 24.1499 74.01 24.7332 74.1705 25.5207C74.9399 29.2186 71.383 12.1244 81.6955 61.6874C81.6955 62.0891 81.6955 75.4069 81.6955 74.6374Z" fill="black"/>
<path d="M128.668 82.0966V65.508C128.668 62.5185 126.218 60.083 123.229 60.083H119.868V70.5237C119.868 76.0362 123.601 80.6827 128.668 82.0966ZM34.7915 86.715C27.5894 86.715 21.7305 92.5709 21.7305 99.7689C21.7305 106.971 27.5894 112.83 34.7915 112.83C41.9936 112.83 47.8525 106.971 47.8525 99.7689C47.8525 92.5712 41.9936 86.715 34.7915 86.715Z" fill="black"/>
<path d="M34.7956 70.7583C18.7978 70.7583 5.78906 83.7813 5.78906 99.7648C5.78906 115.763 18.7973 128.771 34.7956 128.771C50.7939 128.771 63.8021 115.763 63.8021 99.7648C63.8018 83.7813 50.7936 70.7583 34.7956 70.7583ZM34.7918 115.747C25.9819 115.747 18.8143 108.579 18.8143 99.7692C18.8143 90.9629 25.9819 83.7988 34.7918 83.7988C43.6016 83.7988 50.7693 90.9631 50.7693 99.7692C50.7693 108.579 43.6016 115.747 34.7918 115.747ZM121.523 91.8168C111.315 91.8168 103.031 100.1 103.031 110.294C103.031 120.488 111.314 128.771 121.523 128.771C131.702 128.771 140 120.488 140 110.294C140 100.1 131.702 91.8168 121.523 91.8168ZM121.517 119.869C116.238 119.869 111.942 115.574 111.942 110.294C111.942 105.014 116.238 100.719 121.517 100.719C126.792 100.719 131.083 105.014 131.083 110.294C131.083 115.574 126.793 119.869 121.517 119.869Z" fill="black"/>
<path d="M121.517 103.635C117.846 103.635 114.859 106.622 114.859 110.294C114.859 113.965 117.846 116.952 121.517 116.952C125.184 116.952 128.166 113.965 128.166 110.294C128.166 106.622 125.184 103.635 121.517 103.635Z" fill="black"/>
</g>
<defs>
<clipPath id="clip0_1_121">
<rect width="140" height="140" fill="white"/>
</clipPath>
</defs>
</svg>
