<svg width="94" height="94" viewBox="0 0 94 94" fill="none" xmlns="http://www.w3.org/2000/svg">
<path d="M70.3535 29.0996C70.1516 29.0996 69.9863 29.2648 69.9863 29.4668V53.7195C69.9863 53.9215 70.1516 54.0867 70.3535 54.0867H74.3191C74.5211 54.0867 74.6863 53.9215 74.6863 53.7195V29.4668C74.6863 29.2648 74.5211 29.0996 74.3191 29.0996H70.3535ZM23.6473 54.0867C23.8492 54.0867 24.0145 53.9215 24.0145 53.7195V29.6504C24.0145 29.4484 23.8492 29.2832 23.6473 29.2832H19.6816C19.4797 29.2832 19.3145 29.4484 19.3145 29.6504V53.7195C19.3145 53.9215 19.4797 54.0867 19.6816 54.0867H23.6473Z" fill="white"/>
<path d="M85.94 31.2109H84.71V25.0789C84.71 24.3262 84.0857 23.7203 83.333 23.757H74.6857H67.599C67.3971 23.757 67.2318 23.5918 67.2318 23.3898V21.1133C67.2318 20.9113 67.0666 20.7461 66.8646 20.7461H27.135C26.933 20.7461 26.7678 20.9113 26.7678 21.1133V23.4082C26.7678 23.6102 26.6025 23.7754 26.4006 23.7754H19.3139H10.6666C10.5564 23.7754 10.4646 23.7937 10.3545 23.8121C10.2627 23.8305 10.1893 23.8672 10.0975 23.9039C10.0791 23.9223 10.0424 23.9223 10.024 23.9406C9.5834 24.1793 9.28965 24.6383 9.28965 25.1523V31.2109H8.05957C7.74746 31.2109 7.50879 31.4496 7.50879 31.7617V41.5289C7.50879 41.841 7.74746 42.0797 8.05957 42.0797H13.2736C13.5857 42.0797 13.8244 41.841 13.8244 41.5289V31.7617C13.8244 31.4496 13.5857 31.2109 13.2736 31.2109H12.0436V26.8965C12.0436 26.6945 12.2088 26.5293 12.4107 26.5293H19.3139H26.4006C26.6025 26.5293 26.7678 26.6945 26.7678 26.8965V55.4637V56.4734C26.7678 56.6754 26.6025 56.8406 26.4006 56.8406H18.6162C17.0924 56.8406 15.8623 58.0707 15.8623 59.5945V75.0715C15.8623 75.2734 15.6971 75.4387 15.4951 75.4387H13.1084H11.4193C11.2174 75.4387 11.0521 75.6039 11.0521 75.8059V82.1215C11.0521 82.3234 11.2174 82.4887 11.4193 82.4887H82.5803C82.7822 82.4887 82.9475 82.3234 82.9475 82.1215V75.8059C82.9475 75.6039 82.7822 75.4387 82.5803 75.4387H80.8912H78.5045C78.3025 75.4387 78.1373 75.2734 78.1373 75.0715V59.5945C78.1373 58.0707 76.9072 56.8406 75.3834 56.8406H67.599C67.3971 56.8406 67.2318 56.6754 67.2318 56.4734V55.4637V26.8965C67.2318 26.6945 67.3971 26.5293 67.599 26.5293H74.6857H81.5889C81.7908 26.5293 81.956 26.6945 81.956 26.8965V31.2109H80.726C80.4139 31.2109 80.1752 31.4496 80.1752 31.7617V41.5289C80.1752 41.841 80.4139 42.0797 80.726 42.0797H85.94C86.2521 42.0797 86.4908 41.841 86.4908 41.5289V31.7617C86.4908 31.468 86.2521 31.2109 85.94 31.2109ZM23.7385 69.9309C21.7557 69.9309 20.14 68.3152 20.14 66.3324C20.14 64.3496 21.7557 62.734 23.7385 62.734C25.7213 62.734 27.3369 64.3496 27.3369 66.3324C27.3369 68.3152 25.7213 69.9309 23.7385 69.9309ZM30.9353 24.932H45.6228V38.4262H30.9353V24.932ZM57.6299 64.5883C57.6299 64.7902 57.4646 64.9555 57.2627 64.9555H36.7369C36.535 64.9555 36.3697 64.7902 36.3697 64.5883V62.6605C36.3697 62.4586 36.535 62.2934 36.7369 62.2934H57.2443C57.4463 62.2934 57.6115 62.4586 57.6115 62.6605V64.5883H57.6299ZM57.6299 59.1539C57.6299 59.3559 57.4646 59.5211 57.2627 59.5211H36.7369C36.535 59.5211 36.3697 59.3559 36.3697 59.1539V57.2078C36.3697 57.0059 36.535 56.8406 36.7369 56.8406H57.2443C57.4463 56.8406 57.6115 57.0059 57.6115 57.2078V59.1539H57.6299ZM57.6299 53.7195C57.6299 53.9215 57.4646 54.0867 57.2627 54.0867H36.7369C36.535 54.0867 36.3697 53.9215 36.3697 53.7195V51.8836C36.3697 51.6816 36.535 51.5164 36.7369 51.5164H57.2443C57.4463 51.5164 57.6115 51.6816 57.6115 51.8836V53.7195H57.6299ZM57.6299 48.3953C57.6299 48.5973 57.4646 48.7625 57.2627 48.7625H36.7369C36.535 48.7625 36.3697 48.5973 36.3697 48.3953V46.4492C36.3697 46.2473 36.535 46.082 36.7369 46.082H57.2443C57.4463 46.082 57.6115 46.2473 57.6115 46.4492V48.3953H57.6299ZM63.0643 38.4262H48.3768V24.932H63.0643V38.4262ZM70.2611 62.734C72.2439 62.734 73.8596 64.3496 73.8596 66.3324C73.8596 68.3152 72.2439 69.9309 70.2611 69.9309C68.2783 69.9309 66.6627 68.3152 66.6627 66.3324C66.6627 64.3496 68.2783 62.734 70.2611 62.734ZM27.7408 85.2426H16.4865C16.2846 85.2426 16.1193 85.4078 16.1193 85.6098V89.9609C16.1193 90.5668 16.615 91.0625 17.2209 91.0625H27.0064C27.6123 91.0625 28.108 90.5668 28.108 89.9609V85.6098C28.108 85.4078 27.9428 85.2426 27.7408 85.2426ZM77.5131 85.2426H66.2588C66.0568 85.2426 65.8916 85.4078 65.8916 85.6098V89.9609C65.8916 90.5668 66.3873 91.0625 66.9932 91.0625H76.7787C77.3846 91.0625 77.8803 90.5668 77.8803 89.9609V85.6098C77.8803 85.4078 77.715 85.2426 77.5131 85.2426Z" fill="white"/>
<path d="M19.6816 21.0215H23.6473C23.8492 21.0215 24.0145 20.8563 24.0145 20.6543V18.3594C24.0145 18.1574 24.1797 17.9922 24.3816 17.9922H69.6191C69.8211 17.9922 69.9863 18.1574 69.9863 18.3594V20.8379C69.9863 21.0398 70.1516 21.2051 70.3535 21.2051H74.3191C74.5211 21.2051 74.6863 21.0398 74.6863 20.8379V3.30469C74.6863 3.10273 74.5211 2.9375 74.3191 2.9375H19.6816C19.4797 2.9375 19.3145 3.10273 19.3145 3.30469V20.6543C19.3145 20.8563 19.4797 21.0215 19.6816 21.0215Z" fill="white"/>
</svg>
